<svg role="img" viewBox="0 0 24 24" xmlns="http://www.w3.org/2000/svg"><title>Google Analytics</title><path fill="#E37400" d="M22.84 2.998v17.999c.009 1.647-1.32 2.99-2.967 2.998a2.98 2.98 0 0 1-.368-.02c-1.528-.226-2.647-1.556-2.61-3.1V3.12c-.037-1.546 1.086-2.876 2.616-3.1 1.636-.191 3.118.98 3.309 2.616.014.12.02.241.02.362zM4.133 18.055a2.973 2.973 0 1 0 0 5.945 2.973 2.973 0 0 0 0-5.945zm7.872-9.01h-.051c-1.65.09-2.93 1.474-2.891 3.126v7.985c0 2.167.953 3.482 2.35 3.763 1.612.326 3.184-.716 3.51-2.327.04-.198.06-.399.06-.6v-8.959c.003-1.647-1.33-2.985-2.978-2.988z"/></svg>
